<?xml version="1.0" encoding="UTF-8" standalone="no"?>
<!-- Created with Inkscape (http://www.inkscape.org/) -->

<svg
   width="300"
   height="300"
   viewBox="0 0 79.374998 79.374998"
   version="1.1"
   id="svg5"
   sodipodi:docname="secchamp-nobg.svg"
   inkscape:version="1.2 (dc2aedaf03, 2022-05-15)"
   inkscape:export-filename="secchamp-nobg.png"
   inkscape:export-xdpi="96"
   inkscape:export-ydpi="96"
   xmlns:inkscape="http://www.inkscape.org/namespaces/inkscape"
   xmlns:sodipodi="http://sodipodi.sourceforge.net/DTD/sodipodi-0.dtd"
   xmlns:xlink="http://www.w3.org/1999/xlink"
   xmlns="http://www.w3.org/2000/svg"
   xmlns:svg="http://www.w3.org/2000/svg">
  <sodipodi:namedview
     id="namedview1248"
     pagecolor="#505050"
     bordercolor="#eeeeee"
     borderopacity="1"
     inkscape:showpageshadow="0"
     inkscape:pageopacity="0"
     inkscape:pagecheckerboard="0"
     inkscape:deskcolor="#505050"
     showgrid="false"
     inkscape:zoom="3.4233333"
     inkscape:cx="150"
     inkscape:cy="149.85394"
     inkscape:window-width="2741"
     inkscape:window-height="1586"
     inkscape:window-x="-11"
     inkscape:window-y="-11"
     inkscape:window-maximized="1"
     inkscape:current-layer="svg5" />
  <defs
     id="defs2">
    <linearGradient
       id="linearGradient6326">
      <stop
         style="stop-color:#ecc8af;stop-opacity:1;"
         offset="0"
         id="stop6324" />
    </linearGradient>
    <linearGradient
       id="linearGradient6245">
      <stop
         style="stop-color:#3d3d3d;stop-opacity:1;"
         offset="0"
         id="stop6241" />
      <stop
         style="stop-color:#3d3d3d;stop-opacity:0;"
         offset="1"
         id="stop6243" />
    </linearGradient>
    <linearGradient
       xlink:href="#linearGradient6245"
       id="linearGradient6247"
       x1="11.6559"
       y1="24.436495"
       x2="58.483994"
       y2="24.436495"
       gradientUnits="userSpaceOnUse" />
  </defs>
  <g
     id="layer3"
     style="fill:#ffffff" />
  <g
     id="layer2">
    <path
       style="fill:#4f8ba9;fill-opacity:1;stroke:url(#linearGradient6247);stroke-width:0.264583"
       id="path604"
       d="M 34.251989,47.850541 11.6559,23.618537 35.887904,1.0224485 58.483993,25.254452 Z"
       transform="matrix(1.6244541,0,0,1.6419214,-17.282018,-0.4353038)" />
  </g>
  <g
     id="layer1">
    <g
       aria-label="SC"
       id="text70"
       style="font-size:88.1944px;font-family:'SF Movie Poster';-inkscape-font-specification:'SF Movie Poster';stroke:#3d3d3d;stroke-width:0.265">
      <path
         d="m 33.552249,63.46164 q 0,4.448065 -3.144321,7.592387 -3.144322,3.144322 -7.592388,3.144322 -4.448065,0 -7.592387,-3.144322 -3.144322,-3.144322 -3.144322,-7.592387 v -4.601447 h 6.135263 v 4.601447 q 0,1.917269 1.303743,3.297703 1.380434,1.303744 3.297703,1.303744 1.91727,0 3.221013,-1.303744 1.380434,-1.380434 1.380434,-3.297703 v -8.435986 q 0,-6.595407 -3.98792,-10.506637 -3.681158,-2.99094 -7.362315,-6.058571 -3.987921,-4.294684 -3.987921,-11.810381 V 15.913356 q 0,-4.448065 3.144322,-7.592387 3.144322,-3.144322 7.592387,-3.144322 4.448066,0 7.592388,3.144322 3.144321,3.144322 3.144321,7.592387 v 4.601447 h -6.135262 v -4.601447 q 0,-1.917269 -1.380434,-3.221013 -1.303743,-1.380434 -3.221013,-1.380434 -1.917269,0 -3.297703,1.380434 -1.303743,1.303744 -1.303743,3.221013 v 8.435986 q 0,6.595407 3.98792,10.506637 3.681158,2.99094 7.362315,6.058571 3.98792,4.294684 3.98792,11.810381 z"
         id="path8821" />
      <path
         d="m 67.296169,63.46164 q 0,4.448065 -3.144322,7.592387 -3.144322,3.144322 -7.592387,3.144322 -4.448066,0 -7.592388,-3.144322 Q 45.82275,67.909705 45.82275,63.46164 V 15.913356 q 0,-4.448065 3.144322,-7.592387 3.144322,-3.144322 7.592388,-3.144322 4.448065,0 7.592387,3.144322 3.144322,3.144322 3.144322,7.592387 v 4.601447 h -6.135263 v -4.601447 q 0,-1.917269 -1.380434,-3.221013 -1.303743,-1.380434 -3.221012,-1.380434 -1.91727,0 -3.297704,1.380434 -1.303743,1.303744 -1.303743,3.221013 V 63.46164 q 0,1.917269 1.303743,3.297703 1.380434,1.303744 3.297704,1.303744 1.917269,0 3.221012,-1.303744 1.380434,-1.380434 1.380434,-3.297703 v -4.601447 h 6.135263 z"
         id="path8823" />
    </g>
  </g>
</svg>
