<?xml version="1.0" encoding="UTF-8" standalone="no"?>
<!-- Created with Inkscape (http://www.inkscape.org/) -->

<svg
   width="58.287708mm"
   height="53.234165mm"
   viewBox="0 0 58.287708 53.234165"
   version="1.1"
   id="svg2531"
   inkscape:version="1.2.1 (9c6d41e4, 2022-07-14)"
   sodipodi:docname="scnmeetup2-bee-only.svg"
   xmlns:inkscape="http://www.inkscape.org/namespaces/inkscape"
   xmlns:sodipodi="http://sodipodi.sourceforge.net/DTD/sodipodi-0.dtd"
   xmlns="http://www.w3.org/2000/svg"
   xmlns:svg="http://www.w3.org/2000/svg">
  <sodipodi:namedview
     id="namedview2533"
     pagecolor="#ffffff"
     bordercolor="#000000"
     borderopacity="0.25"
     inkscape:showpageshadow="2"
     inkscape:pageopacity="0.0"
     inkscape:pagecheckerboard="0"
     inkscape:deskcolor="#d1d1d1"
     inkscape:document-units="mm"
     showgrid="false"
     inkscape:zoom="0.55876209"
     inkscape:cx="-5.3690113"
     inkscape:cy="-17.896704"
     inkscape:window-width="1309"
     inkscape:window-height="456"
     inkscape:window-x="0"
     inkscape:window-y="25"
     inkscape:window-maximized="0"
     inkscape:current-layer="layer1" />
  <defs
     id="defs2528" />
  <g
     inkscape:label="Layer 1"
     inkscape:groupmode="layer"
     id="layer1"
     transform="translate(-75.309536,-121.88292)">
    <path
       class="st0"
       d="M 115.94954,123.97313 H 90.073285 c -0.661458,0 -1.27,0.34395 -1.5875,0.92604 l -12.938124,22.4102 c -0.3175,0.55563 -0.3175,1.27 0,1.82563 l 12.938124,22.41021 c 0.3175,0.55562 0.926042,0.92604 1.5875,0.92604 h 25.876255 c 0.66145,0 1.27,-0.34396 1.5875,-0.92604 L 130.47516,149.135 c 0.3175,-0.55563 0.3175,-1.27 0,-1.82563 l -12.93812,-22.4102 c -0.3175,-0.58209 -0.92605,-0.92604 -1.5875,-0.92604 z"
       id="path134"
       style="fill:#f1eff0;stroke-width:0.264583" />
    <g
       id="g232"
       transform="matrix(0.26458333,0,0,0.26458333,45.702661,91.614584)">
	<path
   class="st1"
   d="m 224.8,205.7 c 0,0 10,23.9 42.3,22.8 32.3,-1.1 28.3,-25.5 28.3,-26.8 0.2,-14.3 -30.9,-15.4 -30.9,-15.4 z"
   id="path136"
   style="fill:#dcdadf" />

	<path
   class="st1"
   d="m 203.7,206.4 c 0,0 -10,23.9 -42.3,22.8 -32.3,-1 -28.3,-25.5 -28.3,-26.8 C 132.9,188.1 164,187 164,187 Z"
   id="path138"
   style="fill:#dcdadf" />

	<path
   class="st0"
   d="m 232.5,190 c 0,0 63.1,-35.8 75,-17.5 9.3,11.6 -22,48.4 -34.4,48.4 -46.2,2.5 -43.7,-16.2 -43.7,-16.2 z"
   id="path140"
   style="fill:#f1eff0" />

	<path
   class="st2"
   d="m 197.1,188.5 c 0,0 -63.1,-35.8 -75,-17.5 -9.3,11.6 22,48.4 34.4,48.4 46.2,2.5 43.7,-16.2 43.7,-16.2 z"
   id="path142"
   style="fill:#fdfefe" />

	<ellipse
   cx="215.60001"
   cy="174.5"
   rx="22"
   ry="18.200001"
   id="ellipse144" />

	<ellipse
   cx="215.10001"
   cy="197.8"
   rx="22.5"
   ry="19.299999"
   id="ellipse146" />

	<ellipse
   cx="200.2"
   cy="173.3"
   rx="8.6999998"
   ry="12.3"
   id="ellipse148" />

	<ellipse
   cx="231.5"
   cy="173.3"
   rx="8.6999998"
   ry="12.3"
   id="ellipse150" />

	<path
   d="m 205.8,209.1 c 0,0 2.9,6.6 3,9.6 0.1,3 -3,8.9 -3,8.9 h 18.6 c 0,0 -3.1,-7.3 -3.2,-8.9 0,-1.6 3.2,-10.6 3.2,-10.6 z"
   id="path152" />

	<path
   class="st3"
   d="m 212.9,163.9 c 0,0 -0.1,-9.4 -9.9,-12.8 -9.8,-3.4 -27.2,1.7 -27.2,1.7"
   id="path154"
   style="fill:none;stroke:#000000;stroke-miterlimit:10" />

	<path
   class="st3"
   d="m 217.5,163.9 c 0,0 0.1,-9.4 9.9,-12.8 9.8,-3.4 27.2,1.7 27.2,1.7"
   id="path156"
   style="fill:none;stroke:#000000;stroke-miterlimit:10" />

	<g
   id="g182">
		<path
   d="m 200.6,284.5 h 29.8 c 2.6,-2.3 5.2,-4.8 7.5,-7.3 h -44.6 c 2.3,2.6 4.8,5 7.3,7.3 z"
   id="path158" />

		<path
   d="m 215.4,296.9 c 0,0 3,-2.3 7.1,-5.6 h -14.2 c 4.1,3.4 7.1,5.6 7.1,5.6 z"
   id="path160" />

		<path
   d="m 184.5,263.3 c 0.2,0.6 0.3,1.1 0.5,1.6 0.6,1.7 1.6,3.6 2.9,5.6 h 55.7 c 1.2,-1.7 2.1,-3.4 2.6,-4.8 0.2,-0.7 0.5,-1.5 0.7,-2.4 z"
   id="path162" />

		<path
   d="m 248.8,249.3 h -66.5 c 0.2,2.5 0.5,5 0.8,7.3 H 248 c 0.4,-2.3 0.6,-4.8 0.8,-7.3 z"
   id="path164" />

		<path
   d="m 249.8,222.8 c 0,0 -1.2,-0.6 -3.6,-1.5 h -61.4 c -2.3,0.9 -3.6,1.5 -3.6,1.5 0,0 0,2.2 0,5.7 h 68.4 c 0.2,-3.5 0.2,-5.7 0.2,-5.7 z"
   id="path166" />

		<path
   d="m 249.6,235.3 h -68.1 c 0.1,2.3 0.2,4.7 0.3,7.3 h 67.4 c 0.2,-2.6 0.3,-5 0.4,-7.3 z"
   id="path168" />

		<path
   class="st4"
   d="m 215.6,216.2 c -14.8,0 -25.5,3.2 -30.7,5.1 h 61.4 c -5.2,-2 -15.9,-5.1 -30.7,-5.1 z"
   id="path170"
   style="fill:#ffd489" />

		<path
   class="st4"
   d="m 249.8,228.5 h -68.4 c 0,1.9 0.1,4.2 0.2,6.7 h 68.1 c 0,-2.4 0,-4.7 0.1,-6.7 z"
   id="path172"
   style="fill:#ffd489" />

		<path
   class="st4"
   d="m 249.3,242.5 h -67.4 c 0.1,2.2 0.3,4.5 0.5,6.7 h 66.5 c 0.1,-2.2 0.2,-4.4 0.4,-6.7 z"
   id="path174"
   style="fill:#ffd489" />

		<path
   class="st4"
   d="m 248.1,256.5 h -64.9 c 0.4,2.5 0.8,4.8 1.3,6.7 h 62.4 c 0.4,-1.8 0.8,-4.1 1.2,-6.7 z"
   id="path176"
   style="fill:#ffd489" />

		<path
   class="st4"
   d="m 193.3,277.3 h 44.6 c 2.2,-2.3 4.2,-4.6 5.7,-6.7 h -55.7 c 1.5,2.1 3.3,4.4 5.4,6.7 z"
   id="path178"
   style="fill:#ffd489" />

		<path
   class="st4"
   d="m 208.3,291.3 h 14.2 c 2.4,-1.9 5.1,-4.3 7.9,-6.7 h -29.8 c 2.7,2.4 5.4,4.8 7.7,6.7 z"
   id="path180"
   style="fill:#ffd489" />

	</g>

	<path
   class="st5"
   d="m 215.7,114.4 v 42 c 5.7,0 10.9,1.8 14.8,4.8 0.3,-0.1 0.7,-0.1 1,-0.1 4.8,0 8.7,5.5 8.7,12.3 0,6 -3,10.9 -7,12 -0.2,0.2 -0.3,0.3 -0.5,0.5 0.8,0.9 1.5,1.8 2.2,2.8 11.6,-6.3 62.1,-32.4 72.6,-16.2 5.2,6.4 -2.2,20.7 -11.9,32.1 0.1,6.8 -2.3,23 -28.5,23.9 -20.6,0.7 -32.1,-8.8 -37.8,-15.7 -2.2,1.6 -4.8,2.8 -7.6,3.5 -0.3,1.1 -0.5,2.1 -0.5,2.5 0,0.5 0.3,1.5 0.7,2.6 11.5,0.7 19.9,3.2 24.3,4.9 2.3,0.9 3.6,1.5 3.6,1.5 0,0 0,2.2 -0.1,5.7 0,1.9 -0.1,4.2 -0.2,6.7 -0.1,2.3 -0.2,4.7 -0.3,7.3 -0.1,2.2 -0.3,4.5 -0.5,6.7 -0.2,2.5 -0.5,5 -0.8,7.3 -0.3,2.5 -0.7,4.8 -1.2,6.7 -0.2,0.9 -0.4,1.7 -0.7,2.4 -0.5,1.4 -1.4,3.1 -2.6,4.8 -1.5,2.1 -3.5,4.4 -5.7,6.7 -2.3,2.5 -4.9,4.9 -7.5,7.3 -2.8,2.5 -5.5,4.8 -7.9,6.7 -3.3,2.7 -5.9,4.7 -6.8,5.4 v 14.1 H 332.2 V 114.4 Z"
   id="path184"
   style="fill:none" />

	<path
   class="st1"
   d="m 273.1,220.9 c -27.8,1.5 -38,-4.7 -41.7,-9.8 -0.7,0.6 -1.4,1.2 -2.1,1.7 5.7,6.9 17.2,16.4 37.8,15.7 26.2,-0.8 28.5,-17.1 28.5,-23.9 -7.7,9.1 -17,16.3 -22.5,16.3 z"
   id="path186"
   style="fill:#dcdadf" />

	<path
   class="st2"
   d="m 231.5,211.1 c 3.7,5.2 13.8,11.4 41.7,9.8 5.5,0 14.7,-7.2 22.5,-16.3 9.7,-11.4 17.1,-25.6 11.9,-32.1 -10.5,-16.2 -61,9.9 -72.6,16.2 1.7,2.7 2.7,5.8 2.7,9.1 -0.1,5.2 -2.4,9.8 -6.2,13.3 z"
   id="path188"
   style="fill:#fdfefe" />

	<path
   d="m 232.8,185.9 c 0.2,-0.2 0.3,-0.3 0.5,-0.5 -0.3,0.1 -0.5,0.1 -0.8,0.2 0.1,0.1 0.2,0.2 0.3,0.3 z"
   id="path190" />

	<path
   d="m 222.8,173.3 c 0,-6.3 3.4,-11.5 7.7,-12.2 -3.9,-3 -9.1,-4.8 -14.8,-4.8 v 22.2 c 3,0.1 5.9,0.7 8.6,1.7 -1,-2 -1.5,-4.3 -1.5,-6.9 z"
   id="path192" />

	<path
   d="m 221.8,216.3 c 2.8,-0.7 5.3,-1.9 7.6,-3.5 0.8,-0.5 1.5,-1.1 2.1,-1.7 3.8,-3.5 6.1,-8.1 6.1,-13.2 0,-3.3 -1,-6.4 -2.7,-9.1 -0.6,-1 -1.3,-1.9 -2.2,-2.8 -0.1,-0.1 -0.2,-0.2 -0.3,-0.3 -0.3,0 -0.6,0.1 -0.9,0.1 -3,0 -5.7,-2.2 -7.3,-5.4 -2.6,-1 -5.5,-1.6 -8.6,-1.7 v 30.1 l 8.7,-0.5 c 0.1,-0.2 -1.6,4.7 -2.5,8 z"
   id="path194" />

	<path
   d="m 222.8,173.3 c 0,2.5 0.5,4.9 1.5,6.9 1.6,3.3 4.2,5.4 7.3,5.4 0.3,0 0.6,0 0.9,-0.1 0.3,0 0.5,-0.1 0.8,-0.2 4,-1.1 7,-6.1 7,-12 0,-6.8 -3.9,-12.3 -8.7,-12.3 -0.4,0 -0.7,0 -1,0.1 -4.4,0.8 -7.8,6 -7.8,12.2 z"
   id="path196" />

	<path
   d="m 221.3,218.8 c 0,-0.4 0.2,-1.4 0.5,-2.5 0.9,-3.2 2.6,-8.1 2.6,-8.1 l -8.7,0.5 v 12.6 c 2.2,0 4.2,0.1 6.2,0.2 -0.3,-1.3 -0.6,-2.2 -0.6,-2.7 z"
   id="path198" />

	<g
   id="g224">
		<path
   d="m 237.9,277.3 h -22.1 v 7.3 h 14.6 c 2.5,-2.4 5.1,-4.9 7.5,-7.3 z"
   id="path200" />

		<path
   d="m 215.7,291.3 v 5.4 c 0.9,-0.7 3.5,-2.7 6.8,-5.4 z"
   id="path202" />

		<path
   d="m 246.2,265.7 c 0.2,-0.7 0.5,-1.5 0.7,-2.4 h -31.2 v 7.3 h 27.8 c 1.3,-1.8 2.2,-3.4 2.7,-4.9 z"
   id="path204" />

		<path
   d="m 248.8,249.3 h -33.1 v 7.3 H 248 c 0.4,-2.3 0.6,-4.8 0.8,-7.3 z"
   id="path206" />

		<path
   d="m 249.8,222.8 c 0,0 -1.2,-0.6 -3.6,-1.5 h -30.6 v 7.3 h 34.1 c 0.1,-3.6 0.1,-5.8 0.1,-5.8 z"
   id="path208" />

		<path
   d="m 249.6,235.3 h -33.9 v 7.3 h 33.6 c 0.1,-2.6 0.2,-5 0.3,-7.3 z"
   id="path210" />

		<path
   class="st6"
   d="m 246.3,221.3 c -4.4,-1.7 -12.8,-4.2 -24.3,-4.9 -2,-0.1 -4.1,-0.2 -6.2,-0.2 v 5.1 z"
   id="path212"
   style="fill:#fbaf45" />

		<path
   class="st6"
   d="m 249.8,228.5 h -34.1 v 6.7 h 33.9 c 0.1,-2.4 0.1,-4.7 0.2,-6.7 z"
   id="path214"
   style="fill:#fbaf45" />

		<path
   class="st6"
   d="m 249.3,242.5 h -33.6 v 6.7 h 33.1 c 0.2,-2.2 0.3,-4.4 0.5,-6.7 z"
   id="path216"
   style="fill:#fbaf45" />

		<path
   class="st6"
   d="m 248.1,256.5 h -32.3 v 6.7 H 247 c 0.3,-1.8 0.7,-4.1 1.1,-6.7 z"
   id="path218"
   style="fill:#fbaf45" />

		<path
   class="st6"
   d="m 243.6,270.5 h -27.8 v 6.7 h 22.1 c 2.2,-2.2 4.2,-4.5 5.7,-6.7 z"
   id="path220"
   style="fill:#fbaf45" />

		<path
   class="st6"
   d="m 230.3,284.5 h -14.6 v 6.7 h 6.8 c 2.4,-1.9 5.1,-4.2 7.8,-6.7 z"
   id="path222"
   style="fill:#fbaf45" />

	</g>

	<ellipse
   transform="matrix(0.1481,-0.989,0.989,0.1481,-1.5455,337.9801)"
   class="st7"
   cx="195.39999"
   cy="169.89999"
   rx="4.6999998"
   ry="2"
   id="ellipse226"
   style="fill:#383838" />

	<ellipse
   transform="matrix(0.9554,-0.2954,0.2954,0.9554,-39.4464,77.188)"
   class="st7"
   cx="235.7"
   cy="169.10001"
   rx="2"
   ry="4.6999998"
   id="ellipse228"
   style="fill:#383838" />

	<path
   class="st7"
   d="m 201.8,186.8 c -3.3,-1.4 -4.7,1.7 -6,3.8 -3.1,5.1 1.3,16.4 1.3,16.4 -2.4,-8.3 -0.5,-12.8 0.3,-14 2.2,-3.2 6.3,-5 4.4,-6.2 z"
   id="path230"
   style="fill:#383838" />

</g>
  </g>
</svg>
